<svg id="Layer_1" height="512" viewBox="0 0 512 512" width="512" xmlns="http://www.w3.org/2000/svg"><g><path d="m456 148.5v15.83h-400v-15.83c0-1.88.17-3.73.52-5.51 1.63-8.85 7.16-16.34 14.74-20.61 4.35-2.47 9.38-3.88 14.74-3.88h340c16.57 0 30 13.43 30 30z" fill="#e6584e"/><path d="m56 164.33h400v45.83h-400z" fill="#f2a246"/><path d="m56 210.16h400v45.84h-400z" fill="#ffd55f"/><path d="m56 256h400v45.83h-400z" fill="#76d6a8"/><path d="m56 301.83h400v45.83h-400z" fill="#289db8"/><path d="m456 347.66v15.84c0 16.57-13.43 30-30 30h-340c-5.36 0-10.39-1.41-14.74-3.88-7.58-4.27-13.11-11.76-14.74-20.61-.35-1.78-.52-3.63-.52-5.51v-15.84z" fill="#6e5bd9"/><path d="m426 118.5c16.57 0 30 13.43 30 30v215c0 16.57-13.43 30-30 30h-340c-5.36 0-10.39-1.41-14.74-3.88-7.58-4.27-13.11-11.76-14.74-20.61-.35-1.78-.52-3.63-.52-5.51v-215c0-1.88.17-3.73.52-5.51 1.63-8.85 7.16-16.34 14.74-20.61 4.35-2.47 9.38-3.88 14.74-3.88zm0-25h-340c-9.47 0-18.82 2.46-27.03 7.11-14.18 8-24.02 21.73-27 37.7-.64 3.3-.96 6.72-.96 10.19v215c0 3.47.32 6.89.96 10.19 2.98 15.96 12.81 29.69 26.98 37.69 8.22 4.66 17.57 7.12 27.05 7.12h340c30.33 0 55-24.67 55-55v-215c0-30.33-24.67-55-55-55z" fill="#1e0b06"/></g><g><path d="m275.59 256-45.83 45.83-45.83 45.83-45.84 45.84h-52.09c-5.36 0-10.39-1.41-14.74-3.88-7.58-4.27-13.11-11.76-14.74-20.61-.35-1.78-.52-3.63-.52-5.51v-215c0-1.88.17-3.73.52-5.51 1.63-8.85 7.16-16.34 14.74-20.61 4.35-2.47 9.38-3.88 14.74-3.88h52.09l45.83 45.83 45.83 45.83z" fill="#333"/><path d="m240.24 256-137.5 137.5h-16.74c-5.36 0-10.39-1.41-14.74-3.88-7.58-4.27-13.11-11.76-14.74-20.61-.35-1.78-.52-3.63-.52-5.51v-215c0-1.88.17-3.73.52-5.51 1.63-8.85 7.16-16.34 14.74-20.61 4.35-2.47 9.38-3.88 14.74-3.88h16.74l45.83 45.83 45.83 45.83z" fill="#633f23"/><path d="m204.88 256-45.83 45.83-45.83 45.83-41.96 41.96c-7.58-4.27-13.11-11.76-14.74-20.61-.35-1.78-.52-3.63-.52-5.51v-215c0-1.88.17-3.73.52-5.51 1.63-8.85 7.16-16.34 14.74-20.61z" fill="#77dced"/><path d="m169.53 256-45.83 45.83-45.84 45.83-21.34 21.35c-.35-1.78-.52-3.63-.52-5.51v-215c0-1.88.17-3.73.52-5.51l21.34 21.34 45.83 45.83z" fill="#ff9997"/><path d="m134.17 256-45.83 45.83-32.34 32.34v-156.35l32.33 32.34z" fill="#fef9ef"/></g></svg>